<?xml version="1.0" encoding="iso-8859-1"?>
<!-- Generator: Adobe Illustrator 19.0.0, SVG Export Plug-In . SVG Version: 6.00 Build 0)  -->
<svg version="1.1" id="Capa_1" xmlns="http://www.w3.org/2000/svg" xmlns:xlink="http://www.w3.org/1999/xlink" x="0px" y="0px"
	 viewBox="0 0 512 512" style="enable-background:new 0 0 512 512;" xml:space="preserve">
<path style="fill:#96C8EF;" d="M479.296,141.524v228.494c0,6.642-2.761,12.284-7.114,16.459c-0.021,0.011-0.032,0.032-0.053,0.042
	c-3.514,3.383,2.206-0.926-216.13,125.481L44.027,389.613c-7.009-4.041-11.323-11.513-11.323-19.595V143.681
	c0-5.714,1.526-11.207,4.294-15.985c0.042-0.074,0.084-0.137,0.126-0.21c2.747-4.672,6.693-8.65,11.544-11.449L244.151,3.173
	c7.335-4.23,16.364-4.23,23.699,0l19.384,11.197l177.961,102.74c4.357,2.526,7.871,6.093,10.313,10.302
	C477.949,131.632,479.296,136.483,479.296,141.524z"/>
<path style="fill:#3D9AE2;" d="M479.296,141.524v228.494c0,6.642-2.761,12.284-7.114,16.459c-0.021,0.011-0.032,0.032-0.053,0.042
	c-3.514,3.383,2.206-0.926-216.13,125.481L44.027,389.613c-7.009-4.041-11.323-11.513-11.323-19.595V143.681
	c0-5.714,1.526-11.207,4.294-15.985l27.277,15.596L256,252.925l219.508-125.513C477.949,131.632,479.296,136.483,479.296,141.524z"
	/>
<path style="fill:#5AAAE7;" d="M37.125,127.486l218.876,125.439v221.907L32.705,345.888V143.681c0-5.714,1.526-11.207,4.294-15.985
	C37.041,127.622,37.083,127.559,37.125,127.486z"/>
<path style="fill:#1A6FB0;" d="M479.296,141.524v228.494c0,8.082-4.315,15.554-11.323,19.595L256,512V252.925l219.508-125.513
	C477.949,131.632,479.296,136.483,479.296,141.524z"/>
<path style="fill:#1E81CE;" d="M479.296,141.524V332.85c0,8.082-4.315,15.554-11.323,19.595L256,474.831V252.925l219.508-125.513
	C477.949,131.632,479.296,136.483,479.296,141.524z"/>
<g>
</g>
<g>
</g>
<g>
</g>
<g>
</g>
<g>
</g>
<g>
</g>
<g>
</g>
<g>
</g>
<g>
</g>
<g>
</g>
<g>
</g>
<g>
</g>
<g>
</g>
<g>
</g>
<g>
</g>
</svg>
